<?xml version="1.0" standalone="no"?>
<!DOCTYPE svg PUBLIC "-//W3C//DTD SVG 20010904//EN"
 "http://www.w3.org/TR/2001/REC-SVG-20010904/DTD/svg10.dtd">
<svg version="1.0" xmlns="http://www.w3.org/2000/svg"
 width="344.000000pt" height="53.000000pt" viewBox="0 0 344.000000 53.000000"
 preserveAspectRatio="xMidYMid meet">

<g transform="translate(0.000000,53.000000) scale(0.100000,-0.100000)"
fill="#000000" stroke="none">
<path d="M3158 436 l-57 -63 57 -57 c32 -31 61 -56 65 -56 4 0 7 54 7 120 0
66 -3 120 -7 120 -5 0 -34 -29 -65 -64z"/>
<path d="M3013 341 c-29 -32 -53 -60 -53 -63 0 -3 27 -28 60 -57 l60 -52 0
115 c0 64 -3 115 -7 115 -5 -1 -32 -27 -60 -58z"/>
<path d="M3270 280 c0 -60 4 -110 8 -110 4 0 32 25 62 55 l54 55 -54 55 c-30
30 -58 55 -62 55 -4 0 -8 -49 -8 -110z"/>
<path d="M3120 185 c0 -63 4 -115 8 -115 4 0 33 26 65 58 l57 58 -58 57 c-32
31 -61 57 -65 57 -4 0 -7 -52 -7 -115z"/>
</g>
</svg>
